<svg width="40" height="40" viewBox="0 0 40 40" fill="none" xmlns="http://www.w3.org/2000/svg">
<path d="M35.2174 9.56522H31.0435L28.7391 6.08696C27.8696 4.78261 26.3478 4 24.7826 4H15.2174C13.6522 4 12.1304 4.78261 11.2609 6.08696L8.95652 9.56522H4.78261C2.13043 9.56522 0 11.6957 0 14.3478V31.2174C0 33.8696 2.13043 36 4.78261 36H35.2174C37.8696 36 40 33.8696 40 31.2174V14.3478C40 11.6957 37.8696 9.56522 35.2174 9.56522ZM20 32.087C14.0435 32.087 9.21739 27.2609 9.21739 21.3043C9.21739 15.3478 14.0435 10.5652 20 10.5652C25.9565 10.5652 30.7826 15.3913 30.7826 21.3478C30.7826 27.2609 25.9565 32.087 20 32.087ZM34.6087 16.3043C34.5652 16.3043 34.5217 16.3043 34.4348 16.3043H32.6957C31.913 16.2609 31.3043 15.6087 31.3478 14.8261C31.3913 14.087 31.9565 13.5217 32.6957 13.4783H34.4348C35.2174 13.4348 35.8696 14.0435 35.913 14.8261C35.9565 15.6087 35.3913 16.2609 34.6087 16.3043Z" fill="white"/>
<path d="M20 15.3477C16.6957 15.3477 14 18.0433 14 21.3477C14 24.652 16.6957 27.3042 20 27.3042C23.3043 27.3042 26 24.6085 26 21.3042C26 17.9998 23.3043 15.3477 20 15.3477Z" fill="white"/>
</svg>
